<svg xmlns="http://www.w3.org/2000/svg" width="512" height="512" viewBox="0 0 512 512">
<g>
<path d="M 0.08 406.75 L 0.00 512.00 L 0.00 0.00 L 0.08 140.25 C0.15,259.07 0.36,279.58 1.48,274.50 C4.89,259.05 12.07,245.98 23.50,234.45 C35.53,222.31 48.88,215.17 66.27,211.58 C70.48,210.71 76.85,210.00 80.43,210.00 L 86.94 210.00 L 90.04 203.75 C104.27,174.99 129.61,152.57 159.03,142.69 C188.92,132.66 221.62,135.35 250.23,150.19 C281.10,166.20 304.74,198.51 312.64,235.50 L 313.50 239.50 L 331.50 239.57 C347.89,239.64 349.90,239.84 353.94,241.82 C356.38,243.02 359.13,244.00 360.06,244.00 C360.99,244.00 363.94,245.22 366.62,246.71 C371.73,249.54 384.48,259.58 384.52,260.80 C384.54,261.18 386.03,263.52 387.83,265.98 C396.02,277.15 400.15,290.59 400.10,305.94 C400.02,336.79 378.90,365.33 348.63,375.49 C340.13,378.34 331.21,379.33 298.50,381.04 C264.62,382.82 168.71,383.41 130.00,382.08 C81.51,380.42 73.14,379.68 61.86,376.06 C31.44,366.28 8.50,340.39 1.55,308.00 C0.33,302.28 0.15,314.19 0.08,406.75 ZM 512.00 512.00 L 0.00 512.00 L 152.75 511.90 C248.74,511.84 304.01,511.46 301.50,510.87 C290.17,508.26 281.23,503.11 273.12,494.54 C267.00,488.07 261.00,476.28 261.00,470.73 C261.00,462.59 266.76,457.01 275.17,457.00 C281.09,457.00 285.23,460.25 288.46,467.41 C294.30,480.38 306.98,486.49 320.08,482.65 C329.92,479.77 336.91,471.48 338.51,460.76 C340.02,450.70 333.35,438.93 323.56,434.37 L 318.50 432.02 L 267.50 432.01 C218.38,431.99 216.38,431.92 213.24,430.01 C203.88,424.30 203.69,410.32 212.91,405.55 C217.29,403.28 316.62,403.23 325.30,405.49 C353.61,412.86 371.58,442.69 364.48,470.54 C359.49,490.15 344.63,505.11 324.89,510.42 C320.08,511.71 329.81,511.88 415.75,511.93 L 512.00 512.00 ZM 167.38 479.61 C162.62,481.60 92.98,481.57 88.40,479.57 C80.99,476.35 78.15,465.82 82.89,459.16 C83.75,457.94 84.44,456.97 85.31,456.18 C88.83,453.00 95.23,453.00 127.99,453.00 L 128.30 453.00 C165.52,453.00 165.72,453.01 169.10,455.27 C173.61,458.28 176.23,463.46 175.65,468.20 C175.07,473.02 171.55,477.87 167.38,479.61 ZM 126.19 243.70 C129.11,245.39 135.55,244.72 138.04,242.46 C139.08,241.52 141.52,237.63 143.46,233.82 C149.81,221.31 159.56,211.91 172.40,205.90 C178.76,202.92 191.29,200.00 197.69,200.00 C202.73,200.00 208.00,194.63 208.00,189.50 C208.00,185.37 205.79,180.97 202.75,179.08 C199.73,177.19 186.60,177.67 177.45,180.01 C159.94,184.47 144.84,194.40 132.46,209.61 C127.03,216.27 120.00,229.89 120.01,233.73 C120.01,237.05 122.99,241.85 126.19,243.70 ZM 186.93 430.25 C181.88,432.82 159.22,432.74 153.46,430.12 C144.08,425.86 142.43,414.75 150.09,407.41 L 153.13 404.50 L 169.82 404.50 C184.94,404.50 186.75,404.69 189.19,406.50 C197.52,412.70 196.30,425.47 186.93,430.25 Z" fill="rgb(147,181,214)"/>
<path d="M 360.63 244.08 C361.22,244.07 361.14,243.74 360.00,243.01 C358.57,242.09 353.69,240.56 344.18,238.03 C340.21,236.97 336.56,237.07 324.25,238.60 C320.82,239.02 320.00,238.82 320.00,237.54 C320.00,236.66 321.17,235.51 322.60,234.96 C324.02,234.42 325.42,233.10 325.70,232.02 C325.99,230.95 327.06,229.80 328.09,229.47 C330.65,228.66 347.33,210.49 355.37,199.76 C378.19,169.32 393.12,131.46 397.48,93.00 C398.69,82.38 398.89,81.87 401.33,83.16 C402.52,83.79 405.07,85.59 406.98,87.15 C408.89,88.72 410.98,90.00 411.62,90.00 C412.95,90.00 422.62,100.75 428.72,109.00 C446.85,133.54 451.82,169.26 441.35,199.91 C436.74,213.43 427.63,228.17 418.32,237.21 C410.60,244.70 402.14,251.45 397.92,253.48 C394.54,255.11 387.65,258.84 385.29,260.32 C384.79,260.63 384.78,261.24 385.32,262.31 C384.83,261.52 384.53,260.97 384.52,260.80 C384.48,259.58 371.73,249.54 366.62,246.71 C364.36,245.45 361.90,244.38 360.63,244.08 ZM 512.00 0.00 L 512.00 512.00 L 511.96 340.25 C511.93,192.82 511.73,168.95 510.53,171.69 C507.97,177.59 503.28,179.00 486.29,179.00 C473.39,178.99 471.09,178.74 468.30,177.04 C461.89,173.13 460.17,165.33 464.57,160.09 C468.35,155.61 472.59,154.76 489.08,155.15 C502.39,155.47 503.79,155.69 506.53,157.81 C508.16,159.08 510.04,161.33 510.70,162.81 C511.66,164.94 511.92,148.15 511.95,82.75 ZM 342.33 0.00 L 429.94 0.00 C375.49,0.00 348.09,0.34 348.50,1.00 C348.84,1.55 349.69,2.00 350.38,2.00 C352.26,2.00 355.56,6.03 356.86,9.90 C358.68,15.33 358.34,38.43 356.38,42.30 C352.47,50.04 347.45,52.41 341.06,49.53 C334.61,46.62 334.00,44.50 334.00,24.94 L 334.00 7.69 L 338.17 3.85 ZM 452.83 76.46 C441.21,87.59 440.63,88.00 436.41,88.00 C430.67,88.00 426.29,84.26 424.93,78.22 C423.61,72.31 424.71,70.59 438.26,57.25 C449.35,46.33 449.82,46.00 454.12,46.00 C459.51,46.00 465.48,50.34 466.50,55.01 C467.76,60.74 465.44,64.38 452.83,76.46 ZM 259.39 87.04 C256.10,88.29 252.00,88.21 249.50,86.85 C245.69,84.77 227.84,66.48 225.82,62.58 C224.09,59.26 223.95,58.11 224.88,55.02 C226.34,50.15 229.96,46.95 234.74,46.31 C240.45,45.54 243.26,47.41 255.29,59.97 C267.80,73.02 268.87,75.57 264.58,82.07 C263.11,84.27 260.78,86.51 259.39,87.04 ZM 461.10 285.71 C457.47,288.16 452.75,288.62 449.50,286.85 C445.76,284.81 427.86,266.52 425.89,262.71 C421.22,253.73 428.34,244.53 438.49,246.43 C441.13,246.93 444.74,249.75 453.44,258.11 C459.75,264.18 465.13,269.90 465.41,270.82 C465.68,271.74 465.59,274.96 465.20,277.96 C464.59,282.70 464.05,283.73 461.10,285.71 ZM 389.06 267.72 C391.66,271.48 393.82,275.59 395.52,279.97 C393.83,275.64 391.67,271.55 389.06,267.72 ZM 359.74 243.97 C358.61,243.81 356.15,242.91 353.94,241.82 C356.19,242.92 358.41,243.70 359.74,243.97 Z" fill="rgb(247,151,62)"/>
<path d="M 359.74 243.97 C358.41,243.70 356.19,242.92 353.94,241.82 L 353.94 241.82 C349.90,239.84 347.89,239.64 331.50,239.57 L 313.50 239.50 L 312.64 235.50 C304.74,198.51 281.10,166.20 250.23,150.19 C236.46,143.05 221.74,138.72 206.85,137.27 C217.13,138.19 227.16,140.44 236.39,144.01 C240.73,145.68 244.45,146.88 244.66,146.67 C244.87,146.46 245.86,143.41 246.85,139.89 C257.15,103.44 283.85,77.67 322.00,67.36 C326.95,66.02 332.45,65.60 345.00,65.58 C364.62,65.55 372.40,67.23 388.76,75.01 C397.50,79.16 404.87,83.92 411.73,90.02 C411.69,90.01 411.65,90.00 411.62,90.00 C410.98,90.00 408.89,88.72 406.98,87.15 C405.07,85.59 402.52,83.79 401.33,83.16 C398.89,81.87 398.69,82.38 397.48,93.00 C393.12,131.46 378.19,169.32 355.37,199.76 C347.33,210.49 330.65,228.66 328.09,229.47 C327.06,229.80 325.99,230.95 325.70,232.02 C325.42,233.10 324.02,234.42 322.60,234.96 C321.17,235.51 320.00,236.66 320.00,237.54 C320.00,238.82 320.82,239.02 324.25,238.60 C336.56,237.07 340.21,236.97 344.18,238.03 C353.69,240.56 358.57,242.09 360.00,243.01 C361.14,243.74 361.22,244.07 360.63,244.08 C360.40,244.03 360.21,244.00 360.06,244.00 C359.97,244.00 359.87,243.99 359.74,243.97 ZM 461.10 285.71 C464.05,283.73 464.59,282.70 465.20,277.96 C465.51,275.58 465.63,273.07 465.53,271.67 C465.80,272.14 465.98,272.55 466.09,272.90 C467.55,277.79 465.37,283.19 460.81,285.97 C459.22,286.95 457.44,287.56 455.69,287.80 C457.56,287.53 459.44,286.83 461.10,285.71 ZM 460.01 264.64 C458.11,262.68 455.84,260.42 453.44,258.11 C451.07,255.84 449.08,253.97 447.39,252.45 C451.58,256.02 456.33,260.60 460.01,264.64 ZM 421.80 100.32 C423.25,102.00 424.69,103.77 426.14,105.63 C424.74,103.85 423.26,102.04 421.80,100.32 Z" fill="rgb(250,169,81)"/>
<path d="M 0.08 406.75 C0.15,314.19 0.33,302.28 1.55,308.00 C8.50,340.39 31.44,366.28 61.86,376.06 C73.14,379.68 81.51,380.42 130.00,382.08 C168.71,383.41 264.62,382.82 298.50,381.04 C331.21,379.33 340.13,378.34 348.63,375.49 C378.90,365.33 400.02,336.79 400.10,305.94 C400.15,290.41 395.77,276.41 387.50,265.56 C385.04,262.35 384.42,260.86 385.29,260.32 C387.65,258.84 394.54,255.11 397.92,253.48 C402.14,251.45 410.60,244.70 418.32,237.21 C427.63,228.17 436.74,213.43 441.35,199.91 C451.82,169.25 446.84,133.46 428.70,109.00 C416.48,92.51 404.96,82.71 388.76,75.01 C372.40,67.23 364.62,65.55 345.00,65.58 C332.45,65.60 326.95,66.02 322.00,67.36 C283.85,77.67 257.15,103.44 246.85,139.89 C245.86,143.41 244.87,146.46 244.66,146.67 C244.45,146.88 240.73,145.68 236.39,144.01 C212.75,134.87 183.80,134.38 159.03,142.69 C129.61,152.57 104.27,174.99 90.04,203.75 L 86.94 210.00 L 80.43 210.00 C76.85,210.00 70.48,210.71 66.27,211.58 C48.88,215.17 35.53,222.31 23.50,234.45 C12.07,245.98 4.89,259.05 1.48,274.50 C0.36,279.58 0.15,259.07 0.08,140.25 L 0.00 0.00 L 171.17 -0.00 L 342.33 -0.00 L 338.17 3.85 L 334.00 7.69 L 334.00 24.94 C334.00,44.50 334.61,46.62 341.06,49.53 C347.45,52.41 352.47,50.04 356.38,42.30 C358.34,38.43 358.68,15.33 356.86,9.90 C355.56,6.03 352.26,2.00 350.38,2.00 C349.69,2.00 348.84,1.55 348.50,1.00 C348.09,0.34 375.49,-0.00 429.94,-0.00 L 512.00 0.00 L 511.95 82.75 C511.92,148.15 511.66,164.94 510.70,162.81 C510.04,161.33 508.16,159.08 506.53,157.81 C503.79,155.69 502.39,155.47 489.08,155.15 C472.59,154.76 468.35,155.61 464.57,160.09 C460.17,165.33 461.89,173.13 468.30,177.04 C471.09,178.74 473.39,178.99 486.29,179.00 C503.28,179.00 507.97,177.59 510.53,171.69 C511.73,168.95 511.93,192.82 511.96,340.25 L 512.00 512.00 L 415.75 511.93 C329.81,511.88 320.08,511.71 324.89,510.42 C344.63,505.11 359.49,490.15 364.48,470.54 C371.58,442.69 353.61,412.86 325.30,405.49 C316.62,403.23 217.29,403.28 212.91,405.55 C203.69,410.32 203.88,424.30 213.24,430.01 C216.38,431.92 218.38,431.99 267.50,432.01 L 318.50 432.02 L 323.56 434.37 C333.35,438.93 340.02,450.70 338.51,460.76 C336.91,471.48 329.92,479.77 320.08,482.65 C306.98,486.49 294.30,480.38 288.46,467.41 C285.23,460.25 281.09,457.00 275.17,457.00 C266.76,457.01 261.00,462.59 261.00,470.73 C261.00,476.28 267.00,488.07 273.12,494.54 C281.23,503.11 290.17,508.26 301.50,510.87 C304.01,511.46 248.74,511.84 152.75,511.90 L 0.00 512.00 L 0.08 406.75 ZM 167.38 479.61 C171.55,477.87 175.07,473.02 175.65,468.20 C176.23,463.46 173.61,458.28 169.10,455.27 C165.72,453.01 165.52,453.00 128.30,453.00 C87.17,453.00 87.28,452.98 82.89,459.16 C78.15,465.82 80.99,476.35 88.40,479.57 C92.98,481.57 162.62,481.60 167.38,479.61 ZM 186.93 430.25 C196.30,425.47 197.52,412.70 189.19,406.50 C186.75,404.69 184.94,404.50 169.82,404.50 L 153.13 404.50 L 150.09 407.41 C142.43,414.75 144.08,425.86 153.46,430.12 C159.22,432.74 181.88,432.82 186.93,430.25 ZM 460.81 285.97 C465.37,283.19 467.55,277.79 466.09,272.90 C464.50,267.60 443.39,247.35 438.49,246.43 C428.34,244.53 421.22,253.73 425.89,262.71 C427.86,266.52 445.76,284.81 449.50,286.85 C452.61,288.54 457.18,288.19 460.81,285.97 ZM 259.39 87.04 C260.78,86.51 263.11,84.27 264.58,82.07 C268.87,75.57 267.80,73.02 255.29,59.97 C243.26,47.41 240.45,45.54 234.74,46.31 C229.96,46.95 226.34,50.15 224.88,55.02 C223.95,58.11 224.09,59.26 225.82,62.58 C227.84,66.48 245.69,84.77 249.50,86.85 C252.00,88.21 256.10,88.29 259.39,87.04 ZM 452.83 76.46 C465.44,64.38 467.76,60.74 466.50,55.01 C465.48,50.34 459.51,46.00 454.12,46.00 C449.82,46.00 449.35,46.33 438.26,57.25 C424.71,70.59 423.61,72.31 424.93,78.22 C426.29,84.26 430.67,88.00 436.41,88.00 C440.63,88.00 441.21,87.59 452.83,76.46 ZM 126.19 243.70 C122.99,241.85 120.01,237.05 120.01,233.73 C120.00,229.89 127.03,216.27 132.46,209.61 C144.84,194.40 159.94,184.47 177.45,180.01 C186.60,177.67 199.73,177.19 202.75,179.08 C205.79,180.97 208.00,185.37 208.00,189.50 C208.00,194.63 202.73,200.00 197.69,200.00 C191.29,200.00 178.76,202.92 172.40,205.90 C159.56,211.91 149.81,221.31 143.46,233.82 C141.52,237.63 139.08,241.52 138.04,242.46 C135.55,244.72 129.11,245.39 126.19,243.70 Z" fill="rgb(254,254,254)"/>
</g>
</svg>