<svg xmlns="http://www.w3.org/2000/svg" xmlns:xlink="http://www.w3.org/1999/xlink" width="1920" zoomAndPan="magnify" viewBox="0 0 1440 809.999993" height="1080" preserveAspectRatio="xMidYMid meet" version="1.0"><path fill="#f2f9ea" d="M 1179.886719 402.609375 C 1170.59375 383.117188 1154.746094 372.917969 1136.527344 369.089844 C 1141.265625 364.71875 1145.273438 359.4375 1148.917969 353.425781 C 1157.660156 339.03125 1161.488281 322.089844 1161.851562 305.332031 C 1162.578125 270.902344 1148.550781 236.105469 1127.054688 209.691406 C 1086.066406 159.230469 1011.558594 159.777344 957.457031 190.5625 C 963.285156 161.417969 959.460938 129.71875 943.0625 105.308594 C 923.9375 76.523438 891.511719 61.222656 858.171875 55.941406 C 788.035156 45.011719 700.59375 68.511719 655.050781 125.527344 C 638.292969 146.296875 631.734375 168.886719 633.738281 192.203125 C 628.273438 188.195312 622.445312 184.550781 617.34375 181.457031 C 602.585938 172.894531 586.375 167.0625 569.433594 164.695312 C 534.636719 159.960938 496.5625 171.253906 469.601562 193.84375 C 448.652344 211.332031 429.527344 237.746094 422.238281 264.160156 C 419.140625 275.089844 417.503906 288.390625 421.875 299.136719 C 422.054688 299.683594 422.421875 300.230469 422.601562 300.960938 C 336.617188 264.890625 235.515625 406.253906 298.179688 482.582031 C 323.320312 513.1875 363.578125 524.847656 401.652344 529.949219 C 408.394531 583.6875 438.085938 630.503906 488.730469 653.460938 C 538.28125 676.046875 597.851562 673.679688 644.121094 644.351562 C 664.707031 631.234375 680.738281 613.929688 693.125 593.890625 C 733.933594 653.824219 804.613281 692.988281 877.300781 661.839844 C 921.75 642.710938 973.667969 593.707031 981.683594 541.605469 C 1023.582031 571.664062 1087.890625 572.574219 1131.609375 547.800781 C 1180.066406 520.292969 1204.480469 453.800781 1179.886719 402.609375 Z M 1142.90625 497.519531 C 1123.960938 523.753906 1091.351562 532.863281 1060.5625 531.585938 C 1027.042969 530.128906 997.898438 513.371094 978.039062 486.773438 C 973.667969 480.945312 967.65625 478.941406 962.375 479.488281 C 952.902344 477.847656 941.789062 485.679688 945.433594 497.15625 C 954.90625 526.121094 949.621094 551.808594 932.679688 576.765625 C 916.101562 600.992188 890.964844 621.578125 863.636719 632.507812 C 798.785156 658.558594 734.660156 612.289062 705.515625 555.632812 C 698.957031 542.882812 682.742188 548.347656 678.1875 559.277344 C 654.507812 615.933594 595.847656 645.808594 535.914062 637.609375 C 475.066406 629.414062 427.886719 581.683594 423.695312 519.746094 C 423.332031 513.003906 418.777344 508.996094 412.21875 508.269531 C 361.03125 502.441406 294.902344 479.304688 300.367188 416.636719 C 304.011719 374.375 336.070312 332.476562 374.511719 315.53125 C 396.371094 305.878906 421.875 305.511719 441.914062 319.722656 C 444.464844 321.542969 447.742188 317.355469 445.375 315.167969 C 444.097656 314.074219 443.007812 313.164062 441.730469 312.253906 C 441.367188 305.148438 436.628906 298.773438 436.628906 290.941406 C 436.449219 280.191406 440.636719 270.171875 445.191406 260.699219 C 454.664062 241.207031 469.054688 221.714844 486.726562 208.964844 C 509.679688 192.386719 541.195312 184.003906 569.066406 189.652344 C 583.09375 192.566406 596.03125 198.398438 607.871094 206.230469 C 621.167969 214.976562 630.824219 227.910156 643.757812 236.652344 C 654.324219 243.757812 665.070312 230.277344 660.152344 220.257812 C 657.785156 215.339844 654.324219 210.785156 650.316406 206.414062 C 647.402344 153.949219 693.671875 112.777344 741.21875 94.742188 C 792.226562 75.433594 872.199219 65.777344 913.007812 111.320312 C 939.238281 140.46875 930.3125 179.269531 925.574219 214.0625 C 925.574219 214.246094 925.574219 214.429688 925.574219 214.609375 C 924.664062 215.519531 923.9375 216.25 923.023438 217.160156 C 918.289062 222.261719 924.484375 231.003906 930.675781 227 C 930.859375 226.816406 931.222656 226.632812 931.40625 226.453125 C 936.140625 229.914062 942.882812 229.730469 946.34375 222.808594 C 947.4375 220.804688 948.347656 218.617188 949.257812 216.433594 C 998.078125 192.203125 1065.484375 181.457031 1102.828125 226.453125 C 1119.222656 246.125 1129.972656 272.722656 1130.699219 298.410156 C 1131.609375 327.921875 1116.492188 344.496094 1096.453125 363.625 C 1090.621094 369.089844 1092.445312 376.195312 1097.363281 380.203125 C 1098.457031 382.753906 1100.824219 384.757812 1104.648438 384.574219 C 1166.585938 383.484375 1171.140625 458.171875 1142.90625 497.519531 Z M 1142.90625 497.519531 " fill-opacity="1" fill-rule="nonzero"/></svg>